# xmcd CD database file
#
# Track frame offsets:
#	150
#	16002
#	31935
#	47587
#
# Disc length: 841 seconds
#
# Revision: 2
# Processed by: cddbd v1.5PL3 Copyright (c) Steve Scherf et al.
# Submitted via: CDex 1.50beta10
#
DISCID=20034704
DTITLE=野口五郎 - 私鉄沿線
DYEAR=1900
DGENRE=歌謡曲
TTITLE0=私鉄沿線
TTITLE1=私鉄沿線（カラオケ）
TTITLE2=甘い生活
TTITLE3=甘い生活（カラオケ）
EXTD=
EXTT0=
EXTT1=
EXTT2=
EXTT3=
PLAYORDER=
